<?xml version="1.0" encoding="UTF-8"?>
<!-- Generator: Adobe Illustrator 16.0.0, SVG Export Plug-In . SVG Version: 6.00 Build 0)  -->
<!DOCTYPE svg PUBLIC "-//W3C//DTD SVG 1.1//EN" "http://www.w3.org/Graphics/SVG/1.1/DTD/svg11.dtd">
<svg version="1.1" id="Layer_1" xmlns="http://www.w3.org/2000/svg" xmlns:xlink="http://www.w3.org/1999/xlink" x="0px" y="0px" width="1000.85px" height="950.958px" viewBox="0 0 1000.85 950.958" enable-background="new 0 0 1000.85 950.958" xml:space="preserve">
<g>
	<g>
		<defs>
			<path id="SVGID_1_" d="M308.17,18.792l-11.244,11.265C264.223,48.592,248.632,87.362,248,127.634v5.178     c0.77,47.82,22.329,96.588,61.02,115.044c18.121,8.577,40.272,50.468,63.373,52.879c21.854,13.397,92.795,45.687,111.054,62.681     c8.458-9.683-7.134-87.46,2.588-94.811c0.355-8.537,26.301-71.731,29.502-88.447c7.727-40.984,0.771-108.249-27.764-137.06     C456.414,11.482,420.587,0.336,386.679,0.336C357.828,0.336,330.302,8.439,308.17,18.792"/>
		</defs>
		<clipPath id="SVGID_2_">
			<use xlink:href="#SVGID_1_" overflow="visible"/>
		</clipPath>
		
			<linearGradient id="SVGID_3_" gradientUnits="userSpaceOnUse" x1="136.2671" y1="865.4634" x2="176.7279" y2="865.4634" gradientTransform="matrix(0.7984 9.1258 9.1258 -0.7984 -7637.0415 -551.2468)">
			<stop offset="0" style="stop-color:#AAB977"/>
			<stop offset="0.3542" style="stop-color:#A8B773"/>
			<stop offset="0.5769" style="stop-color:#A5B46E"/>
			<stop offset="0.978" style="stop-color:#93A654"/>
			<stop offset="1" style="stop-color:#93A654"/>
		</linearGradient>
		<polygon clip-path="url(#SVGID_2_)" fill="url(#SVGID_3_)" points="521.168,-23.534 554.782,360.65 250.075,387.288     216.462,3.103   "/>
	</g>
	<path fill="#93A654" d="M644.258,233.036c28.612-49.44,92.28-77.62,144.883-73.706c58.966,4.308,95.443,48.53,107.576,85.009   c-4.821,3.636,9.96,95.364,5.296,97.538c-68.846,32.564-228.273,5.217-290.242,2.805c-1.187-10.947,24.187-79.001,22.962-89.949   L644.258,233.036z"/>
	<path fill="none" stroke="#93A654" stroke-width="0.8499" stroke-miterlimit="10" d="M644.258,233.036   c28.612-49.44,92.28-77.62,144.883-73.706c58.966,4.308,95.443,48.53,107.576,85.009c-4.821,3.636,9.96,95.364,5.296,97.538   c-68.846,32.564-228.273,5.217-290.242,2.805c-1.187-10.947,24.187-79.001,22.962-89.949L644.258,233.036z"/>
	<path fill="#8BA147" d="M123.746,212.208c30.352-14.543,71.137-7.943,95.423,13.912c36.458,24.265,49.302,95.048,59.005,132.711   c-51.022-6.046-172.233,1.502-219.618,29.444c-13.358-18.22-14.663-56.594-13.813-77.5c1.541-38.81,28.1-67.068,52.089-87.263   L123.746,212.208z"/>
	<path fill="none" stroke="#8BA147" stroke-width="0.8499" stroke-miterlimit="10" d="M123.746,212.208   c30.352-14.543,71.137-7.943,95.423,13.912c36.458,24.265,49.302,95.048,59.005,132.711   c-51.022-6.046-172.233,1.502-219.618,29.444c-13.358-18.22-14.663-56.594-13.813-77.5c1.541-38.81,28.1-67.068,52.089-87.263   L123.746,212.208z"/>
	<path fill="#879F3C" d="M588.77,347.568c38.889-24.266,21.617-40.865,43.473-77.343c1.225,10.988,13.478-44.421,21.421-52.088   c103.229-99.514,168.359-57.661,216.732-17.627c27.547,22.725,33.198,137.02,30.669,130.183   c15.729,42.563-28.771,68.884-62.76,90.74c-36.438,29.126-77.382,6.284-115.717,17.191c-96.273,27.467-88.646,23.99-110.501,37.348   c-13.358-7.271-21.499-49.679-34.857-58.175c-36.438,7.272-74.122,15.769-111.746,15.769c-38.868,0-69.26,27.942-106.884,35.214   c-30.352,3.675-100.897,41.932-130.064,29.483c-98.584-41.814-148.164-78.963-172.054-118.366   c6.481,10.749,138.125-84.298,218.214-25.412c31.083,22.921,85.108,46.318,114.255,1.343   c-6.066-24.266-31.123-54.697-49.698-69.596c26.954,21.538,57.623-29.799,72.186,0.591c27.98-7.271,56.554,23.081,66.257,0   c8.497,60.745,61.081,81.532,108.465,63.353L588.77,347.568z"/>
	<g>
		<defs>
			<path id="SVGID_4_" d="M627.974,394.124c-6.877,13.596-37.386,32.169-50.744,23.673c-36.438,7.272-74.082,15.769-111.746,15.769     c-38.868,0-69.26,27.942-106.884,35.252c-30.352,3.636-61.969,0-93.526-2.41c-1.167,13.358-46.872,27.626-27.685,40.786     c12.015,8.26,10.927,19.602,12.134,32.96c6.086-4.86,1.738,23.437,5.236,29.522c15.037,26.36,83.191-3.716,114.768-8.576     c37.388-1.818,74.774-1.106,112.141-0.316c62.069,1.186,123.938,2.45,185.432-8.141c-8.497-13.438-16.994-25.531-26.716-38.889     c3.636-15.809,7.272-32.803,10.908-48.611c8.457-18.22,63.786-63.826,81.849-61.099c-45.332-6.758-68.965-26.083-85.327-26.083     C640.107,377.96,633.942,382.268,627.974,394.124"/>
		</defs>
		<clipPath id="SVGID_5_">
			<use xlink:href="#SVGID_4_" overflow="visible"/>
		</clipPath>
		
			<linearGradient id="SVGID_6_" gradientUnits="userSpaceOnUse" x1="160.4111" y1="876.2778" x2="200.8869" y2="876.2778" gradientTransform="matrix(0.0845 4.8404 4.8404 -0.0845 -3781.2949 -321.452)">
			<stop offset="0" style="stop-color:#84A03D"/>
			<stop offset="0.2143" style="stop-color:#84A03D"/>
			<stop offset="0.5083" style="stop-color:#88A53D"/>
			<stop offset="0.8022" style="stop-color:#95B13D"/>
			<stop offset="1" style="stop-color:#95B13D"/>
		</linearGradient>
		<polygon clip-path="url(#SVGID_5_)" fill="url(#SVGID_6_)" points="732.981,368.989 736.974,595.998 218.358,605.047     214.407,378.039   "/>
	</g>
	<path fill="none" stroke="#84A03D" stroke-width="0.8499" stroke-miterlimit="10" d="M465.483,433.565   c37.624,0,75.308-8.497,111.746-15.769c13.358,8.497,43.867-10.117,50.744-23.673c18.813-37.031,38.493,0,105.167,9.92   c-18.063-2.727-73.313,42.879-81.849,61.099c-3.636,15.769-7.272,32.803-10.908,48.611c9.722,13.357,18.219,25.49,26.756,38.848   c-98.428,16.994-198.021,3.637-297.613,8.498c-31.577,4.86-99.731,34.897-114.768,8.576c-3.498-6.086,0.85-34.383-5.236-29.522   c-1.207-13.358-0.119-24.7-12.134-32.96c-19.187-13.122,26.459-27.428,27.685-40.786c31.557,2.372,63.174,6.007,93.526,2.372   C396.263,461.507,426.615,433.565,465.483,433.565z"/>
	<path fill="#95B13D" d="M242.091,513.161c6.067-4.86,20.966,24.899,28.259,20.038c24.305,18.218,67.62,32.762,99.177,27.901   c99.593-4.861,199.186,8.496,297.573-8.498c72.877,33.988,159.112,23.081,229.538,66.831c-2.411,4.781-7.271,15.769-9.722,21.854   c-204.008,7.271-409.299,0-613.347,3.636c-48.551,4.862-88.666-23.08-129.945-40.113c-36.458,15.809-74.101,27.981-112.951,32.803   c21.856-47.386,84.516-84.852,133.107-75.129c36.419,7.271,54.361,4.545,82.283-19.721L242.091,513.161z"/>
	<path fill="none" stroke="#95B13D" stroke-width="0.8499" stroke-miterlimit="10" d="M242.091,513.161   c6.067-4.86,20.966,24.899,28.259,20.038c24.305,18.218,67.62,32.762,99.177,27.901c99.593-4.861,199.186,8.496,297.573-8.498   c72.877,33.988,159.112,23.081,229.538,66.831c-2.411,4.781-7.271,15.769-9.722,21.854c-204.008,7.271-409.299,0-613.347,3.636   c-48.551,4.862-88.666-23.08-129.945-40.113c-36.458,15.809-74.101,27.981-112.951,32.803   c21.856-47.386,84.516-84.852,133.107-75.129c36.419,7.271,54.361,4.545,82.283-19.721L242.091,513.161z"/>
	<g>
		<defs>
			<path id="SVGID_7_" d="M111.691,562.522c-41.358-4.622-81.67,43.236-97.32,69.677c-32.466,55.132,24.523,191.479,126.407,173.932     c80.228-13.872,80.82-71.651,123.366-85.84c41.634-13.872,50.251-0.75,79.082,26.163     c18.89,17.666-59.342,269.968,229.498,161.127c21.737-8.182,10.435-98.763,22.33-75.327     c-108.169-213.492,13.081-141.327,51.969-121.883c13.358,14.584,28.219,42.763,39.917,59.282     c52.563,74.456,95.8,153.302,231.831,98.21c31.536-12.806,54.38-106.786,52.642-143.027     c-2.095-43.947-36.438-85.958-72.838-107.813c-2.41,4.86-7.153-9.841-13.556-11.383c-133.344-32.13-400.07,17.271-604.118,20.946     c-48.611,4.781-91.135-47.86-132.455-64.854L111.691,562.522z"/>
		</defs>
		<clipPath id="SVGID_8_">
			<use xlink:href="#SVGID_7_" overflow="visible"/>
		</clipPath>
		
			<linearGradient id="SVGID_9_" gradientUnits="userSpaceOnUse" x1="190.4854" y1="866.479" x2="230.9546" y2="866.479" gradientTransform="matrix(2.4338 11.4501 11.4501 -2.4338 -9969.4453 422.8088)">
			<stop offset="0" style="stop-color:#95B13D"/>
			<stop offset="0.2143" style="stop-color:#95B13D"/>
			<stop offset="0.392" style="stop-color:#99B63D"/>
			<stop offset="0.5604" style="stop-color:#A1BF3F"/>
			<stop offset="0.5792" style="stop-color:#A8C445"/>
			<stop offset="0.628" style="stop-color:#B7CF54"/>
			<stop offset="0.6755" style="stop-color:#C0D75F"/>
			<stop offset="0.7198" style="stop-color:#C3DB63"/>
			<stop offset="1" style="stop-color:#C3DB63"/>
		</linearGradient>
		<polygon clip-path="url(#SVGID_8_)" fill="url(#SVGID_9_)" points="930.31,356.302 1066.42,996.582 24.746,1218.017     -111.345,577.699   "/>
	</g>
	<g>
		<defs>
			<path id="SVGID_10_" d="M345.774,9.941c-35.292,8.299-72.56,43.749-82.816,66.039c-13.556,29.562-11.165,110.698-11.165,110.698     l128.364,142.315l106.035-7.429l-1.817-31.617c0,0,40.924-169.308,38.117-167.412c-0.69,0.395-21.933-54.657-35.331-75.406     C470.246,21.006,403.555,8.241,365.357,8.241C357.334,8.241,350.577,8.794,345.774,9.941"/>
		</defs>
		<clipPath id="SVGID_11_">
			<use xlink:href="#SVGID_10_" overflow="visible"/>
		</clipPath>
		
			<linearGradient id="SVGID_12_" gradientUnits="userSpaceOnUse" x1="128.8804" y1="867.3198" x2="169.3466" y2="867.3198" gradientTransform="matrix(0.9838 8.0124 8.0124 -0.9838 -6708.5786 -172.4708)">
			<stop offset="0" style="stop-color:#BED73A"/>
			<stop offset="0.2299" style="stop-color:#A8BF3B"/>
			<stop offset="0.5893" style="stop-color:#8FA73C"/>
			<stop offset="0.8022" style="stop-color:#879F3C"/>
			<stop offset="1" style="stop-color:#879F3C"/>
		</linearGradient>
		<polygon clip-path="url(#SVGID_11_)" fill="url(#SVGID_12_)" points="521.189,-25.114 564.088,324.25 253.513,362.389     210.612,12.984   "/>
	</g>
	<path fill="none" stroke="#879F3C" stroke-width="0.8499" stroke-miterlimit="10" d="M487.142,47.13   C466.669,15.552,373.341,3.419,345.734,9.941c-35.232,8.299-72.56,43.71-82.796,66.039   c-13.516,29.562-11.125,110.698-11.125,110.698l128.364,142.315l106.036-7.429l-1.857-31.657c0,0,40.903-169.268,38.157-167.411   C521.82,122.931,500.539,67.878,487.142,47.13z"/>
	<g>
		<defs>
			<path id="SVGID_13_" d="M655.916,216.873c-10.117,22.764-12.845,20.63-16.006,44.185c-2.056,14.899-24.188,72.046,117.021,95.719     c74.419,19.523,135.755-17.468,137.85-29.562c10.947-63.787-5.889-111.528-36.795-140.616     c-23-20.867-52.482-29.364-81.887-29.364C723.022,157.235,670.184,184.781,655.916,216.873"/>
		</defs>
		<clipPath id="SVGID_14_">
			<use xlink:href="#SVGID_13_" overflow="visible"/>
		</clipPath>
		
			<linearGradient id="SVGID_15_" gradientUnits="userSpaceOnUse" x1="249.7925" y1="820.4829" x2="290.252" y2="820.4829" gradientTransform="matrix(1.3982 -4.8762 -4.8762 -1.3982 4387.4717 2718.686)">
			<stop offset="0" style="stop-color:#879F3C"/>
			<stop offset="0.2363" style="stop-color:#879F3C"/>
			<stop offset="0.3747" style="stop-color:#8CA33D"/>
			<stop offset="0.5546" style="stop-color:#9AB045"/>
			<stop offset="0.7566" style="stop-color:#B3C856"/>
			<stop offset="0.8571" style="stop-color:#C3DB63"/>
			<stop offset="1" style="stop-color:#C3DB63"/>
		</linearGradient>
		<polygon clip-path="url(#SVGID_14_)" fill="url(#SVGID_15_)" points="557.706,359.662 637.776,80.406 963.783,173.873     883.715,453.128   "/>
	</g>
	<g>
		<defs>
			<path id="SVGID_16_" d="M258.118,520.947c-1.423,0.316-1.917,3.003-1.186,8.854c4.01,33.869-76.77,43.67-100.286,33.988     l-36.774,0.829c-41.398-4.663-81.709,43.274-97.3,69.676C-9.954,689.385,47.095,825.851,148.96,808.185     c80.247-13.872,80.86-71.612,123.345-85.8c41.655-13.872,50.27-0.752,79.042,26.162     c18.911,17.667-59.281,270.008,229.519,161.128c21.737-8.141,10.473-98.724,22.368-75.327     c-108.129-213.491,13.122-141.326,51.932-121.883c13.357,14.544,28.296,42.762,39.916,59.281     c52.563,74.498,95.799,153.302,231.869,98.21c31.499-12.805,78.45-85.247,58.057-148.045     c-13.516-41.853-35.648-83.982-72.087-105.838c-2.41,4.9-13.357-6.798-19.68-8.378c-84.575-20.354-193.852-42.288-225.705-61.89     C559.8,479.49,390.809,579.319,316.193,580.584c-8.833,0.908-21.46-14.426-32.862-29.799     c-10.77-14.544-20.413-29.088-24.583-29.839H258.118z"/>
		</defs>
		<clipPath id="SVGID_17_">
			<use xlink:href="#SVGID_16_" overflow="visible"/>
		</clipPath>
		
			<linearGradient id="SVGID_18_" gradientUnits="userSpaceOnUse" x1="190.1572" y1="869.103" x2="230.6299" y2="869.103" gradientTransform="matrix(2.2428 11.5384 11.5384 -2.2428 -10008.2021 239.8896)">
			<stop offset="0" style="stop-color:#95B13D"/>
			<stop offset="0.2143" style="stop-color:#95B13D"/>
			<stop offset="0.3046" style="stop-color:#99B63D"/>
			<stop offset="0.3901" style="stop-color:#A1BF3F"/>
			<stop offset="0.4159" style="stop-color:#A8C445"/>
			<stop offset="0.4833" style="stop-color:#B7CF54"/>
			<stop offset="0.5488" style="stop-color:#C0D75F"/>
			<stop offset="0.6099" style="stop-color:#C3DB63"/>
			<stop offset="0.6754" style="stop-color:#BCD15F"/>
			<stop offset="0.7481" style="stop-color:#A9BF58"/>
			<stop offset="0.8242" style="stop-color:#8FA64C"/>
			<stop offset="0.9027" style="stop-color:#6E873F"/>
			<stop offset="0.9823" style="stop-color:#486630"/>
			<stop offset="1" style="stop-color:#3E5F2D"/>
		</linearGradient>
		<polygon clip-path="url(#SVGID_17_)" fill="url(#SVGID_18_)" points="968.447,289.314 1106.375,998.914 26.999,1208.731     -110.93,499.131   "/>
	</g>
	<path fill="#2A3F1F" d="M538.993,722.938c-10.276-94.336,97.517-45.291,115.223-12.015c3.083,5.771-3.438,21.935-6.56,16.561   c-20.078-34.305-100.206-63.116-87.401,0.79c2.471,12.37,24.246,46.595,26.656,52.643l-5.413,31.261   C547.746,763.25,539.486,727.208,538.993,722.938"/>
	<path fill="none" stroke="#2A3F1F" stroke-width="0.8499" stroke-miterlimit="10" d="M538.993,722.938   c-10.276-94.336,97.517-45.291,115.223-12.015c3.083,5.771-3.438,21.935-6.56,16.561c-20.078-34.305-100.206-63.116-87.401,0.79   c2.471,12.37,24.246,46.595,26.656,52.643l-5.413,31.261C547.746,763.25,539.486,727.208,538.993,722.938z"/>
	<g>
		<defs>
			<path id="SVGID_19_" d="M39.823,301.408c3.753,67.423,11.698,115.164,73.292,143.698c61.593,28.495,77.935,36.872,77.935,36.872     s44.027-23.474,48.611-45.685c4.604-22.172,19.268-32.25,27.23-38.969c7.964-6.718,12.667-21.143,6.758-36.951     c0,0-32.703-93.784-33.138-97.973c-0.415-4.189-7.944-44.422-72.481-57.385C119.834,209.206,57.015,222.207,39.823,301.408"/>
		</defs>
		<clipPath id="SVGID_20_">
			<use xlink:href="#SVGID_19_" overflow="visible"/>
		</clipPath>
		
			<linearGradient id="SVGID_21_" gradientUnits="userSpaceOnUse" x1="122.0713" y1="873.4937" x2="162.5493" y2="873.4937" gradientTransform="matrix(5.3542 3.2171 3.2171 -5.3542 -3417.0571 4559.7144)">
			<stop offset="0" style="stop-color:#BED73A"/>
			<stop offset="0.0879" style="stop-color:#B6CD3B"/>
			<stop offset="0.549" style="stop-color:#90AB3D"/>
			<stop offset="0.7912" style="stop-color:#84A03D"/>
			<stop offset="1" style="stop-color:#84A03D"/>
		</linearGradient>
		<polygon clip-path="url(#SVGID_20_)" fill="url(#SVGID_21_)" points="103.412,99.179 401.835,278.485 215.968,587.817     -82.455,408.51   "/>
	</g>
	<path fill="none" stroke="#8BA147" stroke-width="0.8499" stroke-miterlimit="10" d="M273.648,360.333   c0,0-32.743-93.744-33.138-97.933c-0.415-4.189-7.982-44.382-72.481-57.424c-48.195,4.229-111.054,17.23-128.206,96.431   c3.753,67.462,11.737,115.204,73.332,143.698c61.553,28.495,77.895,36.872,77.895,36.872s43.988-23.474,48.611-45.685   c4.604-22.211,19.268-32.29,27.23-38.969C274.854,390.607,279.558,376.182,273.648,360.333z"/>
	<path fill="#212E1A" d="M904.541,232.602c13.122,38.572,34.938,132.87-29.759,203.414c-53.433,58.254-182.942,3.636-215.863,92.796   c2.055-5.691-15.532-20.709-10.71-31.024c6.956-14.979,4.821-23.277,27.428-34.344c56.673-27.743,139.667-5.572,188.199-51.732   c49.835-40.074,45.448-91.689,44.935-165.158L904.541,232.602z"/>
	<path fill="none" stroke="#212E1A" stroke-width="0.8499" stroke-miterlimit="10" d="M904.541,232.602   c13.122,38.572,34.938,132.87-29.759,203.414c-53.433,58.254-182.942,3.636-215.863,92.796c2.055-5.691-15.532-20.709-10.71-31.024   c6.956-14.979,4.821-23.277,27.428-34.344c56.673-27.743,139.667-5.572,188.199-51.732c49.835-40.074,45.448-91.689,44.935-165.158   L904.541,232.602z"/>
	<path fill="#212E1A" d="M916.004,870.115c60.111-12.963,80.227-143.816,74.693-163.616   c50.982,181.203-111.448,224.598-185.59,195.431c32.841-12.172,73.311-16.52,104.889-32.328L916.004,870.115z"/>
	<path fill="none" stroke="#212E1A" stroke-width="0.8499" stroke-miterlimit="10" d="M916.004,870.115   c60.111-12.963,80.227-143.816,74.693-163.616c50.982,181.203-111.448,224.598-185.59,195.431   c32.841-12.172,73.311-16.52,104.889-32.328L916.004,870.115z"/>
	<path fill="#3E5F2D" d="M277.226,230.744c-64.361-65.605-35.452-198.71,58.312-223.451c66.969-17.746,133.581-1.226,173.655,50.981   c24.326,42.524,22.33,90.385,11.896,136.624c-6.64,29.207-53.136,113.149-13.042,142.236c34.738,25.175,71.789,14.465,92.854-2.569   c18.061-14.583,19.247-53.945,27.744-74.615c27.941-112.99,185.393-150.654,259.494-55.923   c9.722,12.134,17.981,27.349,20.67,42.486c4.387,24.938,31.616,97.3-39.047,165.514c-45.055,43.473-127.337,26.4-185.67,50.705   c-16.994,4.861-29.166,15.729-33.435,29.839c-1.344,4.347-4.506,15.729,8.062,28.258c30.551,30.588,84.892,30.55,123.78,36.636   c68.017,10.908,139.667,34.026,182.192,91.095c30.352,43.751,34.305,88.963,30.984,134.412c0,0-6.245,62.442-74.3,98.645   c-28.376,15.136-55.962,24.424-110.975,20.748l-2.45,1.226c-82.521-26.717-114.137-111.727-160.297-176.105   c1.224-6.087,1.502-15.059,3.952-21.145c17.507,19.128,30.55,38.02,38.65,50.547c10.908,17.034,23.159,34.977,33.791,49.362   c15.61,21.104,28.1,43.908,51.14,54.854c65.604,38.851,173.498,9.21,195.393-63.667c7.312-21.935,6.955-41.023,4.149-65.724   c-4.979-43.71-41.655-90.425-78.094-112.279c-70.426-43.75-158.004-30.114-229.538-66.831   c-15.808-8.101-26.992-24.621-30.549-36.912c-4.467-15.57,1.54-40.785,13.357-53.63c39.877-43.394,111.923-24.819,166.581-36.991   c86.235-30.392,100.186-156.978,45.527-218.946c-14.544-20.63-40.548-37.11-62.442-40.746   c-52.247-7.272-99.158,1.66-142.275,56.397c-22.566,28.652-21.895,104.967-60.744,129.233   c-47.346,18.219-110.342,7.825-118.859-52.879c1.225-10.908,3.122-24.266,5.236-33.829c6.067-27.745,18.813-48.375,27.763-85.918   c9.663-40.588,1.779-96.471-25.175-124.926C441.929,7.451,363.619,6.344,313.723,30.057   c-75.642,35.964-77.895,170.375-8.654,211.674c18.199,13.318,39.046,31.222,56.376,49.44   c17.765,18.654,31.833,32.329,27.506,64.657c-6.679,49.875-94.297,41.181-119.472-2.174   c-19.504-33.633-12.132-96.866-48.551-121.171c-24.326-21.856-70.289-29.602-100.641-15.058   c-30.352,10.948-58.036,38.572-68.232,71.731c-14.287,46.396,3.141,126.388,79.516,156.463   c42.564,16.756,103.229,41.616,117.97,71.137c22.745,45.488-44.481,57.068-91.866,50.351   c-49.046-6.996-114.532,10.827-136.388,58.214c-37.644,72.837,11.501,188.436,128.7,173.853   c46.22-5.69,63.985-51.653,103.031-82.006c29.74-23.159,69.321-30.035,89.635,17.903c11.856,28.02,5.591,69.991,11.5,99.751   c7.449,37.781,27.605,74.181,59.083,84.575c55.29,18.18,98.466,3.872,133.996-5.612c-16.638,4.426-66.849,45.488-126.665,29.917   c-73.865-19.247-81.906-110.737-87.994-175.078c0-23.08-11.935-43.829-27.843-45.963c-43.373-5.849-77.856,67.66-124.846,81.888   c-62.681,19.049-127.356,3.083-158.914-51.535c-27.961-40.074-24.326-92.321-7.293-134.846   c26.716-53.433,94.179-65.645,149.37-60.704c48.334,4.308,65.071-3.596,76.532-18.22c12.055-15.413-10.927-30.353-23.06-40.113   c-43.75-26.716-94.752-40.074-134.846-71.612c-38.85-38.889-52.129-100.621-35.135-152.828   c30.353-63.154,101.333-98.724,165.692-59.835c55.883,23.042,44.718,105.086,77.204,143.975   c23.673,28.337,83.449,19.919,83.292-7.825C372.491,298.522,303.922,269.593,277.226,230.744"/>
	<path fill="none" stroke="#3E5F2D" stroke-width="0.8499" stroke-miterlimit="10" d="M277.226,230.744   c-64.361-65.605-35.452-198.71,58.312-223.451c66.969-17.746,133.581-1.226,173.655,50.981   c24.326,42.524,22.33,90.385,11.896,136.624c-6.64,29.207-53.136,113.149-13.042,142.236c34.738,25.175,71.789,14.465,92.854-2.569   c18.061-14.583,19.247-53.945,27.744-74.615c27.941-112.99,185.393-150.654,259.494-55.923   c9.722,12.134,17.981,27.349,20.67,42.486c4.387,24.938,31.616,97.3-39.047,165.514c-45.055,43.473-127.337,26.4-185.67,50.705   c-16.994,4.861-29.166,15.729-33.435,29.839c-1.344,4.347-4.506,15.729,8.062,28.258c30.551,30.588,84.892,30.55,123.78,36.636   c68.017,10.908,139.667,34.026,182.192,91.095c30.352,43.751,34.305,88.963,30.984,134.412c0,0-6.245,62.442-74.3,98.645   c-28.376,15.136-55.962,24.424-110.975,20.748l-2.45,1.226c-82.521-26.717-114.137-111.727-160.297-176.105   c1.224-6.087,1.502-15.059,3.952-21.145c17.507,19.128,30.55,38.02,38.65,50.547c10.908,17.034,23.159,34.977,33.791,49.362   c15.61,21.104,28.1,43.908,51.14,54.854c65.604,38.851,173.498,9.21,195.393-63.667c7.312-21.935,6.955-41.023,4.149-65.724   c-4.979-43.71-41.655-90.425-78.094-112.279c-70.426-43.75-158.004-30.114-229.538-66.831   c-15.808-8.101-26.992-24.621-30.549-36.912c-4.467-15.57,1.54-40.785,13.357-53.63c39.877-43.394,111.923-24.819,166.581-36.991   c86.235-30.392,100.186-156.978,45.527-218.946c-14.544-20.63-40.548-37.11-62.442-40.746   c-52.247-7.272-99.158,1.66-142.275,56.397c-22.566,28.652-21.895,104.967-60.744,129.233   c-47.346,18.219-110.342,7.825-118.859-52.879c1.225-10.908,3.122-24.266,5.236-33.829c6.067-27.745,18.813-48.375,27.763-85.918   c9.663-40.588,1.779-96.471-25.175-124.926C441.929,7.451,363.619,6.344,313.723,30.057   c-75.642,35.964-77.895,170.375-8.654,211.674c18.199,13.318,39.046,31.222,56.376,49.44   c17.765,18.654,31.833,32.329,27.506,64.657c-6.679,49.875-94.297,41.181-119.472-2.174   c-19.504-33.633-12.132-96.866-48.551-121.171c-24.326-21.856-70.289-29.602-100.641-15.058   c-30.352,10.948-58.036,38.572-68.232,71.731c-14.287,46.396,3.141,126.388,79.516,156.463   c42.564,16.756,103.229,41.616,117.97,71.137c22.745,45.488-44.481,57.068-91.866,50.351   c-49.046-6.996-114.532,10.827-136.388,58.214c-37.644,72.837,11.501,188.436,128.7,173.853   c46.22-5.69,63.985-51.653,103.031-82.006c29.74-23.159,69.321-30.035,89.635,17.903c11.856,28.02,5.591,69.991,11.5,99.751   c7.449,37.781,27.605,74.181,59.083,84.575c55.29,18.18,98.466,3.872,133.996-5.612c-16.638,4.426-66.849,45.488-126.665,29.917   c-73.865-19.247-81.906-110.737-87.994-175.078c0-23.08-11.935-43.829-27.843-45.963c-43.373-5.849-77.856,67.66-124.846,81.888   c-62.681,19.049-127.356,3.083-158.914-51.535c-27.961-40.074-24.326-92.321-7.293-134.846   c26.716-53.433,94.179-65.645,149.37-60.704c48.334,4.308,65.071-3.596,76.532-18.22c12.055-15.413-10.927-30.353-23.06-40.113   c-43.75-26.716-94.752-40.074-134.846-71.612c-38.85-38.889-52.129-100.621-35.135-152.828   c30.353-63.154,101.333-98.724,165.692-59.835c55.883,23.042,44.718,105.086,77.204,143.975   c23.673,28.337,83.449,19.919,83.292-7.825C372.491,298.522,303.922,269.593,277.226,230.744z"/>
	<path fill="#212E1A" d="M586.951,780.955c26.677,37.624,33.079,99.396,1.186,132.356c-39.303,40.667-122.949,43.156-167.588,30.392   c33.019,9.445,71.631-1.225,102.023-21.895c40.073-19.404,70.07-44.065,58.926-103.189l-11.086-23.949L586.951,780.955z"/>
	<path fill="none" stroke="#212E1A" stroke-width="0.8499" stroke-miterlimit="10" d="M586.951,780.955   c26.677,37.624,33.079,99.396,1.186,132.356c-39.303,40.667-122.949,43.156-167.588,30.392   c33.019,9.445,71.631-1.225,102.023-21.895c40.073-19.404,70.07-44.065,58.926-103.189l-11.086-23.949L586.951,780.955z"/>
</g>
</svg>